# xmcd CD database file
#
# Track frame offsets:
#	150
#	13835
#	26014
#	37570
#	49534
#	63310
#	73713
#	86797
#	97199
#	108814
#	123036
#	136677
#	152341
#	164915
#
# Disc length: 2359 seconds
#
# Revision: 1
# Processed by: cddbd v1.5.2PL0 Copyright (c) Steve Scherf et al.
# Submitted via: CDex 1.70beta2
#
DISCID=ab09350e
DTITLE=Original Vogtlandecho - Frühlingsluft
DYEAR=1900
DGENRE=Country
TTITLE0=Komm mal raus (de Fotz von Zobes)
TTITLE1=Amelie (Der Dalienwalzer)
TTITLE2=Der Lottoschein ist weg
TTITLE3=Madel aus Markneikerng
TTITLE4=Fussballgötter
TTITLE5=Wasserbett
TTITLE6=De Zitz von Siebenhitz
TTITLE7=Dor Neid und de Leit
TTITLE8=Oktoberfest mit de Original Vogtlandmiezen
TTITLE9=Kuhbusenwalzer
TTITLE10=Mei Vochelbeerbahm
TTITLE11=Friehlingsluft
TTITLE12=Komm mal raus (de Fotz von Zobes) (modern)
TTITLE13=Oktoberfest mit de Original Vogtlandmiezen (modern)
EXTD=
EXTT0=
EXTT1=
EXTT2=
EXTT3=
EXTT4=
EXTT5=
EXTT6=
EXTT7=
EXTT8=
EXTT9=
EXTT10=
EXTT11=
EXTT12=
EXTT13=
PLAYORDER=
